<svg xmlns="http://www.w3.org/2000/svg" version="1.1" xmlns:xlink="http://www.w3.org/1999/xlink" xmlns:svgjs="http://svgjs.dev/svgjs" width="2000" height="464" viewBox="0 0 2000 464"><g transform="matrix(1,0,0,1,-1.2121212121212466,0.7726169815204003)"><svg viewBox="0 0 396 92" data-background-color="#ffffff" preserveAspectRatio="xMidYMid meet" height="464" width="2000" xmlns="http://www.w3.org/2000/svg" xmlns:xlink="http://www.w3.org/1999/xlink"><g id="tight-bounds" transform="matrix(1,0,0,1,0.2400000000000091,-0.15319129806007936)"><svg viewBox="0 0 395.52 92.30638259612014" height="92.30638259612014" width="395.52"><g><svg viewBox="0 0 654.5964698495261 152.76959999999997" height="92.30638259612014" width="395.52"><g transform="matrix(1,0,0,1,259.0764698495261,45.36701367371917)"><svg viewBox="0 0 395.5199999999999 62.03557265256163" height="62.03557265256163" width="395.5199999999999"><g id="textblocktransform"><svg viewBox="0 0 395.5199999999999 62.03557265256163" height="62.03557265256163" width="395.5199999999999" id="textblock"><g><svg viewBox="0 0 395.5199999999999 62.03557265256163" height="62.03557265256163" width="395.5199999999999"><g transform="matrix(1,0,0,1,0,0)"><svg width="395.5199999999999" viewBox="4.6 -35 285.92999999999995 44.85" height="62.03557265256163" data-palette-color="#5785e7"><path d="M4.6 0L4.6-35 29.6-35 29.6-29.95 10.5-29.95 10.5-20.1 27.6-20.1 27.6-15.1 10.5-15.1 10.5-5.05 30.2-5.05 30.2 0 4.6 0ZM42.9-13.6L34.15-26.55 40.75-26.55 46.7-17.25 52.75-26.55 59.05-26.55 50.5-13.6 59.65 0 53.05 0 46.7-9.95 39.9 0 33.5 0 42.9-13.6ZM80.05-26.75L80.05-26.75Q83.85-26.75 86.7-25.05 89.55-23.35 91.15-20.3 92.75-17.25 92.75-13.2L92.75-13.2Q92.75-9.25 91.17-6.23 89.6-3.2 86.77-1.5 83.95 0.2 80.15 0.2L80.15 0.2Q76.5 0.2 73.92-1.4 71.35-3 70-6.03 68.65-9.05 68.65-13.2L68.65-13.2Q68.65-17.5 70-20.53 71.35-23.55 73.92-25.15 76.5-26.75 80.05-26.75ZM78.85-22.2L78.85-22.2Q76.5-22.2 74.65-21.05 72.8-19.9 71.77-17.93 70.75-15.95 70.75-13.35L70.75-13.35Q70.75-10.75 71.77-8.72 72.8-6.7 74.65-5.58 76.5-4.45 78.85-4.45L78.85-4.45Q81.25-4.45 83.07-5.6 84.9-6.75 85.92-8.75 86.95-10.75 86.95-13.35L86.95-13.35Q86.95-15.9 85.92-17.9 84.9-19.9 83.07-21.05 81.25-22.2 78.85-22.2ZM65 9.7L65-26.55 70.75-26.55 70.75 9.7 65 9.7ZM100.89-15.2L117.14-15.2Q117.04-17.45 116.12-19.03 115.19-20.6 113.54-21.48 111.89-22.35 109.74-22.35L109.74-22.35Q107.34-22.35 105.57-21.25 103.79-20.15 102.79-18.18 101.79-16.2 101.79-13.55L101.79-13.55Q101.79-10.7 102.87-8.6 103.94-6.5 105.87-5.35 107.79-4.2 110.29-4.2L110.29-4.2Q114.74-4.2 117.79-7.35L117.79-7.35 120.84-4.3Q118.89-2.15 116.09-0.98 113.29 0.2 109.84 0.2L109.84 0.2Q105.74 0.2 102.69-1.5 99.64-3.2 97.94-6.23 96.24-9.25 96.24-13.25L96.24-13.25Q96.24-17.25 97.94-20.28 99.64-23.3 102.69-25 105.74-26.7 109.69-26.75L109.69-26.75Q114.39-26.75 117.24-24.83 120.09-22.9 121.29-19.4 122.49-15.9 122.14-11.1L122.14-11.1 100.89-11.1 100.89-15.2ZM147.84 0L147.84-15Q147.84-18.1 146.14-19.88 144.44-21.65 141.44-21.65L141.44-21.65Q137.89-21.6 135.87-19.15 133.84-16.7 133.84-13.05L133.84-13.05 132.24-13.05Q132.24-18 133.64-21 135.04-24 137.62-25.38 140.19-26.75 143.69-26.75L143.69-26.75Q146.79-26.75 149.02-25.5 151.24-24.25 152.42-21.98 153.59-19.7 153.59-16.5L153.59-16.5 153.59 0 147.84 0ZM128.14 0L128.14-26.55 133.89-26.55 133.89 0 128.14 0ZM178.54-24.15L176.44-20.1Q174.69-21.15 172.61-21.78 170.54-22.4 168.79-22.4L168.79-22.4Q167.09-22.4 165.99-21.75 164.89-21.1 164.89-19.6L164.89-19.6Q164.89-18.35 165.91-17.63 166.94-16.9 168.54-16.4 170.14-15.9 171.94-15.35 173.74-14.8 175.36-13.93 176.99-13.05 177.99-11.55 178.99-10.05 178.99-7.6L178.99-7.6Q178.99-4.9 177.56-3.18 176.14-1.45 173.81-0.63 171.49 0.2 168.79 0.2L168.79 0.2Q165.89 0.2 162.99-0.75 160.09-1.7 158.09-3.5L158.09-3.5 160.14-7.4Q161.89-5.85 164.39-4.98 166.89-4.1 169.04-4.1L169.04-4.1Q170.29-4.1 171.26-4.42 172.24-4.75 172.81-5.4 173.39-6.05 173.39-7.1L173.39-7.1Q173.39-8.5 172.39-9.3 171.39-10.1 169.79-10.63 168.19-11.15 166.39-11.68 164.59-12.2 163.01-13.05 161.44-13.9 160.44-15.35 159.44-16.8 159.44-19.2L159.44-19.2Q159.44-21.9 160.84-23.58 162.24-25.25 164.46-26.03 166.69-26.8 169.24-26.8L169.24-26.8Q171.74-26.8 174.24-26.1 176.74-25.4 178.54-24.15L178.54-24.15ZM186.94-15.2L203.19-15.2Q203.09-17.45 202.16-19.03 201.24-20.6 199.59-21.48 197.94-22.35 195.79-22.35L195.79-22.35Q193.39-22.35 191.61-21.25 189.84-20.15 188.84-18.18 187.84-16.2 187.84-13.55L187.84-13.55Q187.84-10.7 188.91-8.6 189.99-6.5 191.91-5.35 193.84-4.2 196.34-4.2L196.34-4.2Q200.79-4.2 203.84-7.35L203.84-7.35 206.89-4.3Q204.94-2.15 202.14-0.98 199.34 0.2 195.89 0.2L195.89 0.2Q191.79 0.2 188.74-1.5 185.69-3.2 183.99-6.23 182.29-9.25 182.29-13.25L182.29-13.25Q182.29-17.25 183.99-20.28 185.69-23.3 188.74-25 191.79-26.7 195.74-26.75L195.74-26.75Q200.44-26.75 203.29-24.83 206.14-22.9 207.34-19.4 208.54-15.9 208.19-11.1L208.19-11.1 186.94-11.1 186.94-15.2ZM238.18-26.55L238.18-2.65Q238.18 1.2 236.48 4 234.78 6.8 231.68 8.33 228.58 9.85 224.38 9.85L224.38 9.85Q221.28 9.85 218.53 8.93 215.78 8 213.33 6.35L213.33 6.35 215.78 2.4Q217.68 3.8 219.68 4.58 221.68 5.35 224.13 5.35L224.13 5.35Q226.68 5.35 228.56 4.38 230.43 3.4 231.46 1.65 232.48-0.1 232.48-2.5L232.48-2.5 232.48-26.55 238.18-26.55ZM223.48-26.75L223.48-26.75Q226.98-26.8 229.46-25.28 231.93-23.75 233.23-20.9 234.53-18.05 234.48-14.05L234.48-14.05Q234.53-10.05 233.26-7.18 231.98-4.3 229.56-2.78 227.13-1.25 223.68-1.25L223.68-1.25Q220.08-1.25 217.38-2.88 214.68-4.5 213.18-7.4 211.68-10.3 211.68-14.1L211.68-14.1Q211.68-17.85 213.16-20.68 214.63-23.5 217.31-25.13 219.98-26.75 223.48-26.75ZM224.83-22.35L224.83-22.35Q222.58-22.35 220.83-21.28 219.08-20.2 218.11-18.3 217.13-16.4 217.08-13.95L217.08-13.95Q217.13-11.5 218.11-9.6 219.08-7.7 220.81-6.63 222.53-5.55 224.83-5.55L224.83-5.55Q227.08-5.55 228.81-6.63 230.53-7.7 231.51-9.6 232.48-11.5 232.48-13.95L232.48-13.95Q232.48-16.45 231.51-18.32 230.53-20.2 228.81-21.28 227.08-22.35 224.83-22.35ZM248.33-15.2L264.58-15.2Q264.48-17.45 263.56-19.03 262.63-20.6 260.98-21.48 259.33-22.35 257.18-22.35L257.18-22.35Q254.78-22.35 253.01-21.25 251.23-20.15 250.23-18.18 249.23-16.2 249.23-13.55L249.23-13.55Q249.23-10.7 250.31-8.6 251.38-6.5 253.31-5.35 255.23-4.2 257.73-4.2L257.73-4.2Q262.18-4.2 265.23-7.35L265.23-7.35 268.28-4.3Q266.33-2.15 263.53-0.98 260.73 0.2 257.28 0.2L257.28 0.2Q253.18 0.2 250.13-1.5 247.08-3.2 245.38-6.23 243.68-9.25 243.68-13.25L243.68-13.25Q243.68-17.25 245.38-20.28 247.08-23.3 250.13-25 253.18-26.7 257.13-26.75L257.13-26.75Q261.83-26.75 264.68-24.83 267.53-22.9 268.73-19.4 269.93-15.9 269.58-11.1L269.58-11.1 248.33-11.1 248.33-15.2ZM290.53-26.75L290.53-21.55Q287.68-21.7 285.6-20.58 283.53-19.45 282.4-17.45 281.28-15.45 281.28-12.85L281.28-12.85 279.68-13.05Q279.68-17.5 280.98-20.55 282.28-23.6 284.73-25.18 287.18-26.75 290.53-26.75L290.53-26.75ZM275.58 0L275.58-26.55 281.33-26.55 281.33 0 275.58 0Z" opacity="1" transform="matrix(1,0,0,1,0,0)" fill="#5785e7" class="wordmark-text-0" data-fill-palette-color="primary" id="text-0"></path></svg></g></svg></g></svg></g></svg></g><g><svg viewBox="0 0 244.43135999999996 152.76959999999997" height="152.76959999999997" width="244.43135999999996"><g><svg xmlns="http://www.w3.org/2000/svg" version="1.1" data-icon="project" data-container-transform="translate(0 3)" viewBox="0 3 16 10" x="0" y="0" height="152.76959999999997" width="244.43135999999996" class="icon-icon-0" data-fill-palette-color="accent" id="icon-0"><path d="M0 3V13H1V3zM15 3V13H16V3zM2 4V6H6V4zM4 7V9H11V7zM9 10V12H14V10z" fill="#16ccd6" data-fill-palette-color="accent"></path></svg></g></svg></g></svg></g><defs></defs></svg><rect width="395.52" height="92.30638259612014" fill="none" stroke="none" visibility="hidden"></rect></g></svg></g></svg>